{"glyphs":{"0":{"ha":836,"x_min":40,"x_max":817,"o":"m 817 264 q 810 117 817 160 q 757 -10 797 42 q 667 -46 739 -32 q 593 -58 617 -54 q 483 -76 531 -69 q 397 -83 436 -83 q 307 -73 347 -83 q 217 -32 267 -62 q 118 29 168 -1 q 40 222 40 88 q 40 303 40 275 q 47 397 40 332 q 122 667 61 538 q 325 843 206 843 q 531 785 431 843 q 648 715 586 750 q 715 675 710 679 q 751 636 735 661 q 806 464 789 585 q 817 264 817 381 m 783 264 q 778 446 783 393 q 729 606 767 556 q 694 640 717 622 q 628 684 685 647 q 521 757 572 721 q 347 811 428 811 q 325 810 333 811 q 150 614 232 801 q 82 415 88 472 q 75 313 76 358 q 74 222 74 267 q 138 65 74 122 q 232 3 213 19 q 319 -23 246 -10 q 471 -36 393 -36 q 520 -35 493 -36 q 588 -25 547 -35 q 671 -7 629 -15 q 729 25 714 6 q 776 135 765 72 q 783 264 783 175 z "},"1":{"ha":361,"x_min":38,"x_max":299,"o":"m 224 106 l 296 106 l 299 67 q 261 71 282 69 q 213 72 240 72 q 171 71 189 72 q 139 64 153 69 l 128 94 q 163 100 140 99 q 196 103 185 101 l 188 439 l 176 808 q 142 775 163 790 q 60 711 75 725 l 38 733 q 101 799 79 775 q 210 900 171 869 l 211 814 q 221 515 211 746 q 226 339 226 383 q 226 203 226 260 q 224 106 225 147 z "},"2":{"ha":404,"x_min":39,"x_max":400,"o":"m 400 183 l 400 136 q 331 143 374 142 q 268 144 288 144 q 213 144 240 144 q 157 143 185 143 q 214 333 171 179 q 263 538 257 488 q 269 661 269 589 q 268 716 269 694 q 264 751 267 738 q 215 815 256 786 q 160 844 186 836 q 146 846 154 846 q 92 794 111 846 q 72 679 72 742 l 39 682 q 71 842 50 814 q 160 878 97 878 q 238 842 197 878 q 297 756 278 806 q 304 728 303 743 q 306 686 306 713 q 304 628 306 651 q 295 522 303 606 q 272 375 288 438 q 204 176 257 313 l 400 183 z "},"3":{"ha":486,"x_min":44,"x_max":451,"o":"m 447 729 q 451 678 451 700 q 413 583 451 610 q 306 561 379 561 q 338 457 325 519 q 351 347 351 394 q 350 326 350 333 q 349 308 349 314 q 350 276 349 293 q 353 244 351 260 q 348 208 353 222 q 328 178 343 193 q 287 152 306 157 q 215 147 268 147 l 182 147 q 131 149 147 147 q 89 163 114 151 l 103 193 q 156 181 126 183 q 192 178 185 179 q 252 184 210 175 q 297 211 294 193 q 317 326 307 268 q 304 453 317 394 q 249 593 288 529 q 376 617 335 593 q 417 697 417 642 q 414 729 417 718 q 389 833 399 811 q 302 912 357 906 q 219 918 247 918 q 67 857 129 918 l 44 879 q 127 934 81 915 q 228 953 174 953 q 285 947 258 953 q 411 872 376 931 q 447 729 433 835 z "},"4":{"ha":379,"x_min":68,"x_max":254,"o":"m 196 381 l 131 379 l 72 382 q 70 568 72 467 q 68 671 68 669 l 106 674 q 106 605 106 640 q 107 532 106 569 l 107 514 l 107 499 q 100 432 107 438 q 107 426 103 432 q 122 414 118 414 l 196 418 l 196 464 l 215 718 l 254 721 l 233 467 l 233 421 l 254 421 l 254 382 l 233 382 l 233 268 q 239 235 236 256 q 242 203 242 215 l 203 200 l 196 264 l 196 381 z "},"5":{"ha":669,"x_min":68,"x_max":603,"o":"m 83 814 q 291 878 174 853 q 519 913 408 903 l 522 879 q 311 847 436 879 q 103 778 203 819 l 114 581 q 171 590 150 588 q 278 600 236 600 q 454 531 363 600 q 600 306 568 444 q 603 275 603 294 q 468 126 603 183 q 229 81 358 81 l 222 111 q 439 157 328 111 q 569 283 569 211 q 567 306 569 292 q 460 498 535 429 q 278 567 386 567 q 153 556 232 567 q 82 544 126 553 l 68 808 l 83 814 z "},"6":{"ha":438,"x_min":46,"x_max":371,"o":"m 242 108 q 301 165 275 101 q 323 218 313 193 q 333 268 333 243 q 274 375 333 325 q 201 419 224 417 q 174 422 179 422 q 165 422 168 422 q 113 406 131 422 q 81 351 94 389 q 117 186 79 246 q 242 108 154 126 m 82 422 q 185 454 110 454 q 322 386 279 454 q 357 222 357 331 q 338 131 357 171 q 271 79 313 79 q 81 164 129 79 q 46 372 46 225 q 90 581 46 493 q 250 690 146 690 q 317 681 275 690 q 371 669 360 671 l 349 628 q 300 640 332 629 q 253 651 268 651 q 233 649 247 651 q 133 569 176 633 q 82 422 89 504 z "},"7":{"ha":478,"x_min":-4,"x_max":411,"o":"m 411 690 q 399 578 403 619 q 375 377 383 438 q 344 178 367 317 q 326 67 339 136 l 293 72 q 308 221 303 165 q 346 492 326 378 l 376 657 q 359 676 371 671 q 325 681 347 681 q 293 679 317 681 q 256 678 269 678 q 226 678 240 678 q 206 683 211 682 q 142 692 161 692 q 100 686 125 692 q 56 681 75 681 q 33 671 46 681 q 44 621 39 654 q 51 568 49 588 l 18 563 q 10 622 14 593 q -4 683 6 651 q 21 701 14 697 q 56 714 39 714 q 126 717 60 714 q 240 719 193 719 q 361 713 315 719 q 411 690 407 707 z "},"8":{"ha":763,"x_min":47,"x_max":733,"o":"m 700 289 q 688 406 700 350 q 643 499 675 461 q 578 575 611 536 q 501 628 551 600 q 439 657 461 650 q 367 672 417 664 q 297 679 318 679 q 283 678 288 678 q 119 540 174 658 q 81 368 81 456 q 93 232 81 317 q 147 43 113 104 q 196 -8 160 24 q 256 -44 232 -39 q 418 -94 336 -69 q 594 8 499 -106 q 700 289 700 133 m 590 606 q 640 571 613 597 q 686 521 663 550 q 728 418 718 483 q 733 289 733 379 q 649 11 733 136 q 418 -128 556 -128 q 330 -116 374 -128 q 243 -85 286 -104 q 174 -35 214 -72 q 119 26 135 1 q 63 177 78 99 q 47 368 47 256 q 92 585 47 507 q 283 711 147 682 q 295 713 290 713 q 304 715 300 714 q 322 711 308 713 q 290 775 297 743 q 283 868 283 807 q 319 1057 283 1006 q 494 1121 364 1121 q 657 1045 594 1121 q 719 868 719 969 q 674 715 719 775 q 547 633 629 654 q 590 606 567 615 m 515 656 q 647 750 593 664 q 686 868 694 825 q 626 1019 667 965 q 494 1088 576 1088 q 347 999 393 1088 q 317 868 317 939 q 329 772 317 824 q 354 719 342 719 q 432 696 378 719 q 482 672 453 688 q 515 656 511 657 z "},"9":{"ha":431,"x_min":18,"x_max":399,"o":"m 360 368 l 358 417 q 354 524 358 463 q 350 592 350 585 l 336 740 q 282 744 313 743 q 219 746 251 746 q 164 740 174 746 q 82 657 113 706 q 51 563 51 608 q 89 426 51 494 q 147 354 119 371 q 240 338 174 338 q 282 340 268 338 q 315 350 296 342 l 360 368 m 360 333 l 322 318 q 277 308 304 313 q 232 303 250 303 q 142 321 182 303 q 45 409 72 350 q 18 563 18 468 q 53 685 18 633 q 156 774 89 738 q 218 782 172 782 q 279 779 250 782 q 332 774 308 776 l 324 839 l 357 842 q 371 761 367 792 q 385 613 385 669 q 389 524 385 579 q 393 433 393 468 l 396 208 l 399 35 l 360 36 l 363 208 l 360 333 z "}," ":{"ha":694,"x_min":0,"x_max":0,"o":""},"!":{"ha":313,"x_min":81,"x_max":251,"o":"m 251 994 q 226 883 233 949 q 211 754 218 817 q 178 557 203 701 q 128 207 139 335 l 94 210 q 115 403 104 315 q 167 729 118 422 q 188 872 181 825 q 221 1006 201 957 l 251 994 m 121 94 l 88 86 l 81 114 l 114 122 l 121 94 z "},"\"":{"ha":368,"x_min":43,"x_max":326,"o":"m 51 857 q 65 891 51 878 q 97 904 78 904 q 153 849 153 904 q 117 738 153 813 q 61 638 89 679 l 43 674 q 77 731 68 710 q 86 767 86 753 q 83 793 83 785 q 67 814 83 806 q 51 857 51 822 m 225 850 q 238 884 225 871 q 271 897 251 897 q 326 842 326 897 q 290 731 326 806 q 235 631 263 672 l 217 667 q 251 724 242 703 q 260 760 260 746 q 257 786 257 778 q 241 807 257 799 q 225 850 225 815 z "},"#":{"ha":539,"x_min":35,"x_max":511,"o":"m 188 629 q 181 577 183 600 q 178 535 178 554 l 342 504 l 361 610 q 276 618 317 614 q 188 629 235 622 m 154 635 q 108 644 129 639 q 64 658 86 650 l 75 689 q 106 678 82 686 q 160 665 131 671 l 164 690 q 180 781 172 732 q 188 899 188 831 l 221 896 q 213 764 221 818 q 197 685 203 714 l 193 660 q 281 649 233 654 q 368 643 329 643 q 393 775 388 750 q 421 900 406 836 l 454 892 q 421 739 440 839 q 401 639 408 678 q 511 621 467 632 l 503 588 q 396 606 458 599 l 375 497 l 461 482 l 456 449 l 369 465 l 329 281 l 296 289 q 310 354 306 332 q 335 472 326 426 l 174 507 q 149 297 161 401 l 149 257 l 115 257 l 115 300 q 127 378 121 329 q 142 511 133 426 q 112 517 119 515 q 89 518 104 518 l 35 518 l 35 551 q 47 551 40 551 q 64 553 53 551 q 92 551 83 553 q 115 549 104 551 q 143 542 125 547 q 144 581 143 569 q 154 635 146 593 z "},"$":{"ha":376,"x_min":15,"x_max":331,"o":"m 206 446 l 222 240 l 229 163 q 277 222 257 186 q 297 292 297 258 q 271 376 297 336 q 206 446 250 407 m 163 817 q 94 744 125 793 q 67 671 64 696 q 99 588 72 631 q 168 513 126 546 l 165 568 q 165 694 165 628 q 163 817 164 761 m 171 475 q 76 561 100 533 q 33 671 33 613 q 68 774 33 726 q 160 853 103 822 q 151 976 160 919 l 185 982 l 193 869 q 272 885 235 885 q 303 883 292 885 q 331 878 315 881 l 325 844 l 254 850 q 231 849 239 850 q 194 833 224 847 l 193 729 q 196 640 193 700 q 199 569 199 579 l 203 486 q 306 383 282 424 q 331 292 331 342 q 303 206 331 247 q 233 132 282 174 l 240 71 l 247 8 l 214 6 l 203 83 l 200 111 q 144 90 175 99 q 92 81 114 81 q 43 96 60 81 q 15 138 36 103 l 43 154 q 63 129 54 138 q 92 114 72 121 q 117 111 103 111 q 162 119 139 111 q 199 143 185 126 l 181 343 l 171 475 z "},"%":{"ha":486,"x_min":0,"x_max":424,"o":"m 226 769 q 190 700 226 721 q 125 685 164 685 q 90 711 106 685 q 74 757 74 738 q 100 817 74 790 q 160 843 126 843 q 210 808 183 843 q 226 769 226 788 m 424 874 l 215 549 l 28 256 l 0 272 q 89 417 56 363 q 257 681 183 569 l 396 890 l 424 874 m 396 499 q 408 465 408 488 q 406 442 408 451 q 396 412 403 432 q 376 378 389 392 q 347 365 363 365 q 297 371 313 365 q 272 397 282 376 q 268 419 268 410 q 274 448 268 428 q 297 487 279 468 q 326 510 314 506 q 354 514 339 514 q 396 499 379 514 m 196 786 q 181 808 192 799 q 164 817 171 817 q 119 801 140 817 q 99 751 99 785 q 107 736 99 746 q 125 718 115 726 q 142 715 128 715 q 181 726 168 715 q 200 767 200 743 q 196 786 200 775 m 369 429 q 375 451 375 446 q 365 472 375 463 q 342 482 356 482 q 326 475 335 482 q 311 460 317 468 q 301 435 301 446 q 305 409 300 425 q 342 393 310 393 q 357 406 349 393 q 369 429 365 418 z "},"&":{"ha":650,"x_min":39,"x_max":664,"o":"m 664 88 l 632 76 l 553 149 q 464 56 508 72 q 333 39 419 39 q 156 96 238 39 q 67 243 67 157 q 73 353 67 301 q 100 422 79 404 q 149 447 121 440 q 218 460 176 454 q 96 596 157 528 q 39 771 39 674 q 74 926 39 890 q 178 976 86 940 q 260 993 219 993 q 372 958 315 993 q 442 904 417 933 q 472 833 472 869 q 447 628 472 711 q 343 465 415 521 q 312 450 332 457 q 276 440 292 443 q 328 387 288 428 q 403 317 369 346 q 453 271 407 313 q 546 193 511 218 q 572 235 561 221 q 614 282 590 260 l 636 260 q 597 217 613 236 q 569 176 592 208 q 603 147 581 168 q 664 88 626 125 m 439 833 q 390 890 429 860 q 319 936 371 906 q 294 946 308 943 q 265 949 279 949 q 199 938 235 949 q 161 925 179 931 q 99 888 118 918 q 72 771 72 847 q 157 568 72 660 q 256 465 206 517 q 297 472 281 469 q 325 483 314 474 q 396 608 353 506 q 444 796 444 724 q 439 833 444 818 m 531 165 q 479 206 504 183 q 400 281 439 243 q 311 361 365 311 q 250 421 257 411 l 239 435 q 162 421 193 429 q 124 400 131 413 q 108 324 117 388 q 100 243 100 260 q 198 148 100 215 q 356 81 296 81 q 450 100 404 81 q 531 165 507 124 z "},"'":{"ha":181,"x_min":46,"x_max":156,"o":"m 54 860 q 67 894 54 881 q 100 907 81 907 q 156 851 156 907 q 119 740 156 815 q 64 640 92 682 l 46 676 q 80 734 71 713 q 89 769 89 756 q 86 796 86 788 q 70 817 86 808 q 54 860 54 825 z "},"(":{"ha":382,"x_min":90,"x_max":339,"o":"m 339 943 q 188 799 235 911 q 135 567 160 732 q 131 527 132 550 q 129 482 129 504 q 136 381 129 429 q 153 297 143 332 q 193 215 163 263 q 282 110 232 156 l 260 85 q 169 185 200 140 q 117 300 139 229 q 97 386 103 342 q 90 475 90 431 q 90 522 90 497 q 92 572 90 546 q 146 824 92 722 q 328 974 207 936 l 339 943 z "},")":{"ha":382,"x_min":78,"x_max":326,"o":"m 78 85 q 229 229 182 117 q 282 461 257 296 q 286 501 285 478 q 288 546 288 524 q 281 647 288 599 q 264 731 274 696 q 224 813 254 765 q 135 918 185 872 l 157 943 q 247 843 217 888 q 300 728 278 799 q 320 642 314 686 q 326 553 326 597 q 326 507 326 528 q 325 469 325 486 l 325 456 q 271 204 325 306 q 89 54 210 92 l 78 85 z "},"*":{"ha":385,"x_min":19,"x_max":367,"o":"m 163 1021 q 166 1037 163 1028 q 169 1049 169 1046 l 136 1049 q 133 1033 136 1042 q 129 1021 129 1024 q 131 992 129 1004 q 139 938 132 979 q 88 960 104 953 q 36 986 60 972 l 19 958 q 81 926 46 943 q 146 899 94 919 l 156 863 q 119 807 126 818 q 83 753 96 769 l 111 733 q 168 818 140 768 l 178 756 l 211 758 q 204 809 210 778 q 194 858 199 840 l 206 878 q 281 835 250 857 q 342 781 311 814 l 367 803 q 299 861 339 833 q 218 906 267 883 q 242 946 229 925 q 279 1014 268 992 l 249 1028 q 206 944 231 989 q 189 918 200 935 l 178 924 q 167 976 172 949 q 163 1021 163 1003 z "},"+":{"ha":510,"x_min":18,"x_max":472,"o":"m 267 557 l 472 538 l 469 504 l 392 511 l 264 524 q 258 439 261 485 q 256 350 256 393 l 256 264 l 251 236 l 218 236 l 222 264 l 222 353 q 225 442 222 396 q 231 526 228 488 l 147 536 q 46 544 122 539 q 18 546 35 544 l 21 579 l 128 572 l 232 560 l 242 706 l 246 814 l 279 811 l 267 557 z "},",":{"ha":181,"x_min":25,"x_max":135,"o":"m 33 72 q 47 106 33 93 q 79 119 60 119 q 135 64 135 119 q 99 -47 135 28 q 43 -147 71 -106 l 25 -111 q 59 -53 50 -75 q 68 -18 68 -32 q 65 8 65 0 q 49 29 65 21 q 33 72 33 38 z "},"-":{"ha":417,"x_min":49,"x_max":385,"o":"m 385 407 q 352 404 367 404 q 326 404 338 404 l 243 404 l 199 404 q 118 402 143 404 q 63 388 93 400 l 49 418 q 113 434 79 431 q 196 438 147 438 l 243 438 l 326 438 l 347 438 q 379 440 354 438 l 385 407 z "},".":{"ha":167,"x_min":8,"x_max":142,"o":"m 24 119 q 83 154 46 154 q 119 136 100 156 q 132 121 125 128 q 142 74 142 107 q 138 45 142 56 q 119 29 135 35 q 90 24 115 28 q 67 19 78 19 q 46 26 56 19 q 26 46 36 32 q 13 71 15 60 q 12 94 8 83 q 24 119 15 106 z "},"/":{"ha":424,"x_min":96,"x_max":383,"o":"m 383 918 q 350 808 367 863 q 269 558 310 683 q 181 285 214 383 l 126 126 l 96 138 q 135 268 121 219 q 210 517 181 421 q 271 722 239 614 q 336 892 301 810 q 353 929 342 907 l 383 918 z "},":":{"ha":146,"x_min":53,"x_max":100,"o":"m 86 528 l 53 528 l 53 556 l 86 556 l 86 528 m 100 93 l 67 88 l 60 144 l 93 147 l 100 93 z "},";":{"ha":181,"x_min":8,"x_max":142,"o":"m 33 72 q 47 106 33 93 q 79 119 60 119 q 135 64 135 119 q 99 -47 135 28 q 43 -147 71 -106 l 25 -111 q 59 -53 50 -75 q 68 -18 68 -32 q 65 8 65 0 q 49 29 65 21 q 33 72 33 38 m 24 397 q 83 432 46 432 q 119 414 100 433 q 132 399 125 406 q 142 351 142 385 q 138 323 142 333 q 119 307 135 313 q 90 301 115 306 q 67 297 78 297 q 46 303 56 297 q 26 324 36 310 q 13 349 15 338 q 12 372 8 361 q 24 397 15 383 z "},"<":{"ha":504,"x_min":100,"x_max":449,"o":"m 449 158 l 426 133 q 218 346 319 221 q 100 518 131 453 l 418 858 l 443 836 l 151 524 q 292 324 218 418 q 449 158 372 222 z "},"=":{"ha":461,"x_min":38,"x_max":428,"o":"m 428 554 q 396 551 414 554 q 372 547 378 547 l 51 547 l 51 581 l 368 581 q 399 584 381 581 q 425 588 418 588 l 428 554 m 419 413 l 38 415 l 38 449 l 419 446 l 419 413 z "},">":{"ha":504,"x_min":101,"x_max":450,"o":"m 450 303 q 333 131 418 235 q 124 -82 236 11 l 101 -57 q 257 107 176 6 q 399 308 328 207 l 107 621 l 132 643 l 450 303 z "},"?":{"ha":496,"x_min":32,"x_max":458,"o":"m 442 571 q 350 481 404 506 q 228 446 331 472 l 200 169 l 167 172 l 197 469 q 342 529 274 492 q 413 588 410 567 q 418 639 418 611 q 378 779 418 711 q 326 847 356 817 q 254 878 296 878 q 89 778 174 878 q 71 730 75 761 q 64 671 67 699 l 32 676 q 46 747 38 710 q 60 794 54 785 q 143 869 85 839 q 263 899 201 899 q 342 876 310 899 q 408 790 368 858 q 458 638 458 706 q 442 571 458 603 m 190 67 q 175 47 179 53 q 158 24 165 35 l 131 42 q 147 65 138 53 q 165 88 153 72 l 190 67 z "},"@":{"ha":597,"x_min":43,"x_max":575,"o":"m 390 624 q 381 644 388 633 q 369 659 374 654 q 351 674 364 664 q 326 701 333 694 q 288 715 314 715 q 249 710 283 715 q 194 654 215 706 q 181 576 174 603 q 224 498 192 532 q 296 464 257 464 q 317 467 303 464 q 383 521 368 482 q 390 590 390 540 q 390 624 390 607 m 392 681 l 410 685 l 417 657 l 418 643 q 431 583 421 614 q 450 524 440 551 q 475 556 467 540 q 501 629 483 572 q 504 649 504 640 q 463 774 504 708 q 346 853 413 853 q 331 851 336 851 q 148 748 224 838 q 72 561 72 658 q 76 521 72 542 q 161 389 90 456 q 289 322 232 322 q 408 381 318 322 q 544 508 513 447 l 575 492 q 435 353 536 421 q 289 289 339 289 q 127 367 211 289 q 43 521 43 446 q 111 772 43 672 q 331 885 188 885 q 485 808 429 885 q 535 629 535 739 q 510 544 535 581 q 435 465 494 524 l 414 531 q 379 461 401 489 q 321 428 353 428 q 202 473 257 428 q 147 576 147 518 q 169 689 147 646 q 261 746 199 746 q 338 728 304 746 q 392 681 364 714 z "},"A":{"ha":293,"x_min":38,"x_max":300,"o":"m 208 446 l 97 443 l 82 153 l 49 168 l 64 442 l 38 442 l 38 475 l 65 475 l 104 797 l 111 826 l 161 829 l 235 482 l 240 482 l 243 449 l 300 176 l 254 178 l 225 338 l 208 446 m 99 476 l 201 479 l 150 719 l 99 476 z "},"B":{"ha":486,"x_min":17,"x_max":454,"o":"m 269 508 q 404 457 354 508 q 454 319 454 406 q 359 135 454 226 q 157 44 264 44 q 117 49 138 44 l 108 174 q 74 426 99 264 q 36 700 50 588 q 17 971 17 863 q 93 967 61 967 q 124 967 108 967 q 153 968 139 967 q 347 882 281 968 q 406 681 406 806 q 367 567 406 610 q 269 508 333 531 m 101 506 q 272 549 247 538 q 372 681 358 588 q 374 707 374 690 q 300 858 374 790 q 153 935 235 918 q 125 938 136 938 q 90 936 108 938 q 53 933 71 935 q 69 731 53 847 q 101 506 85 614 m 106 471 q 122 353 115 401 q 142 175 142 221 l 147 78 q 164 76 153 76 q 338 174 246 76 q 421 319 421 263 q 372 425 421 378 q 243 476 319 476 l 149 476 l 106 471 z "},"C":{"ha":708,"x_min":25,"x_max":650,"o":"m 650 463 l 628 440 q 506 515 576 492 q 347 539 435 539 q 233 530 306 539 q 110 458 161 521 q 58 282 58 394 q 176 76 58 190 q 458 -67 307 -49 l 458 -100 q 148 8 271 -100 q 25 282 25 115 q 63 490 25 432 q 250 565 111 565 q 517 541 438 565 q 650 463 596 517 z "},"D":{"ha":521,"x_min":78,"x_max":496,"o":"m 496 500 q 475 324 496 415 q 407 169 450 211 q 296 125 376 139 q 167 115 238 115 l 94 115 q 89 208 90 171 q 83 439 83 324 q 83 556 83 490 q 85 701 83 622 l 78 943 q 170 927 144 933 q 222 906 196 921 q 268 876 249 890 q 339 825 303 850 q 451 690 406 783 q 496 500 496 596 m 453 493 q 418 660 453 571 q 321 797 379 761 q 208 876 264 836 q 167 890 193 885 q 111 903 140 896 l 118 707 l 128 583 q 128 319 128 392 q 128 149 128 246 l 167 149 q 274 163 211 149 q 381 197 336 178 q 435 331 413 211 q 453 493 453 428 z "},"E":{"ha":613,"x_min":29,"x_max":554,"o":"m 554 68 l 551 39 l 476 43 q 264 56 371 43 l 214 63 l 43 85 l 38 293 q 33 433 38 347 q 29 574 29 519 q 32 664 29 617 q 38 751 35 711 q 117 771 88 765 q 265 790 208 790 q 360 790 335 790 q 421 790 386 790 l 421 760 q 383 762 404 761 q 335 763 363 763 q 300 763 317 763 q 268 760 278 760 q 138 742 218 760 q 67 724 111 736 l 68 507 l 68 451 q 149 445 101 447 q 254 443 197 443 q 322 438 278 443 q 383 433 367 433 l 383 404 q 74 419 211 404 l 74 115 l 214 93 l 264 86 q 371 76 313 81 q 478 72 429 72 l 554 68 z "},"F":{"ha":394,"x_min":74,"x_max":438,"o":"m 74 886 l 438 899 l 438 865 l 107 853 l 107 600 q 119 600 111 600 q 133 600 126 600 l 156 600 q 232 604 199 600 l 285 613 l 299 582 l 239 572 q 169 569 208 569 q 111 568 129 568 l 113 529 q 136 244 113 438 q 149 104 149 142 l 101 106 q 89 253 93 197 q 75 524 75 433 l 75 579 l 75 632 l 75 679 l 75 719 l 75 753 l 75 781 l 75 803 l 75 821 q 75 860 75 844 q 74 886 75 875 z "},"G":{"ha":671,"x_min":46,"x_max":629,"o":"m 629 633 q 565 582 601 608 q 497 536 544 567 q 526 501 518 521 q 542 411 542 465 q 490 242 542 304 q 324 171 432 171 q 89 296 150 171 q 46 583 46 385 l 46 676 q 71 899 46 838 q 222 989 108 989 q 424 957 360 989 q 531 810 503 917 l 497 801 q 379 929 475 890 q 222 956 313 956 q 101 875 136 956 q 76 703 76 815 q 78 640 76 681 q 79 583 79 599 q 133 325 79 433 q 297 203 194 203 q 324 204 314 203 q 447 272 390 214 q 511 417 511 338 q 503 478 511 461 q 465 518 494 494 q 417 483 425 490 q 386 454 408 476 l 364 476 q 453 549 399 511 q 607 658 586 640 l 629 633 z "},"H":{"ha":389,"x_min":32,"x_max":350,"o":"m 278 433 l 233 740 l 267 746 l 311 433 l 333 433 l 333 400 l 315 400 l 350 163 l 317 157 l 282 400 l 114 400 q 125 279 122 342 q 128 146 128 217 l 94 146 q 81 400 94 281 l 69 400 l 69 433 l 75 433 q 32 622 63 533 l 32 736 l 65 736 l 65 626 q 90 537 79 585 q 110 433 101 489 l 278 433 z "},"I":{"ha":160,"x_min":60,"x_max":121,"o":"m 121 99 l 88 96 q 85 127 86 110 q 85 153 85 144 q 85 187 85 169 q 86 222 85 204 l 86 389 l 60 715 q 78 810 60 743 q 88 869 88 846 l 121 867 q 107 792 121 838 q 93 717 93 746 l 119 390 l 119 222 q 119 184 119 203 q 118 147 118 165 q 118 125 118 136 q 121 99 121 107 z "},"J":{"ha":331,"x_min":8,"x_max":340,"o":"m 210 707 l 160 692 l 149 722 l 329 778 l 340 747 l 242 717 q 289 456 268 613 q 310 225 310 300 l 310 207 q 299 40 304 124 q 189 -46 279 -46 q 82 -11 128 -46 q 8 72 47 15 l 36 92 q 99 27 65 50 q 189 -12 132 4 q 206 -15 200 -15 q 269 89 254 -15 q 276 207 276 135 q 260 456 276 338 q 210 707 243 574 z "},"K":{"ha":293,"x_min":10,"x_max":288,"o":"m 72 569 l 74 560 q 159 453 107 531 q 231 331 211 375 q 261 247 244 299 q 288 164 283 175 l 257 153 q 182 342 218 261 q 76 518 126 464 l 108 192 l 64 189 l 50 442 q 31 739 50 558 q 10 901 25 800 l 43 904 l 56 764 l 69 619 q 133 699 75 636 q 244 806 197 767 l 267 781 q 208 733 238 757 q 153 685 178 710 q 109 633 129 660 q 72 569 89 606 z "},"L":{"ha":458,"x_min":-3,"x_max":389,"o":"m 389 151 q 378 146 382 147 q 351 136 363 138 q 306 133 339 135 q 235 132 272 132 q 162 133 200 132 q 81 135 124 133 q 65 141 71 135 q 58 156 58 147 l 25 561 q 32 672 32 621 q 23 812 32 740 q -3 947 14 883 l 39 963 q 58 810 51 878 q 65 671 65 743 q 65 630 65 649 q 58 558 64 611 l 93 169 q 167 165 125 167 q 257 164 208 164 q 306 165 283 164 q 350 169 328 165 q 365 176 361 174 q 375 182 368 178 l 389 151 z "},"M":{"ha":603,"x_min":8,"x_max":592,"o":"m 388 700 q 356 540 374 610 q 300 360 338 469 q 222 546 263 471 q 122 688 178 631 q 111 503 111 565 q 83 267 111 418 q 58 124 61 146 l 36 -81 l 8 -86 l 31 125 q 51 317 38 211 q 76 526 64 424 q 101 746 96 682 q 213 615 165 686 q 261 530 238 578 q 300 442 285 482 q 332 571 315 493 q 364 721 349 649 q 379 754 368 735 q 392 772 383 761 q 424 668 411 719 q 442 581 432 633 q 486 370 457 489 q 546 130 515 251 q 592 -81 576 8 l 564 -86 q 518 129 547 14 q 460 357 489 244 q 411 574 425 497 q 401 640 407 603 q 388 700 396 676 z "},"N":{"ha":424,"x_min":64,"x_max":440,"o":"m 324 264 l 340 383 q 365 549 340 385 q 388 714 378 629 l 407 901 l 440 901 q 438 863 438 878 q 424 714 431 775 q 374 382 399 547 q 365 258 367 317 q 361 171 363 199 l 317 165 l 317 189 q 247 382 288 257 q 185 578 215 479 q 115 774 147 692 l 100 814 l 100 751 l 103 417 l 103 235 l 64 235 l 69 414 q 68 582 69 479 q 67 750 67 685 l 67 889 l 99 896 q 153 783 125 839 q 258 460 183 707 q 324 264 294 342 z "},"O":{"ha":933,"x_min":69,"x_max":894,"o":"m 894 439 q 888 263 894 344 q 867 106 882 181 q 818 -67 839 -26 q 561 -168 767 -168 q 394 -161 453 -168 q 249 -112 286 -149 q 110 88 151 -21 q 69 343 69 196 q 160 657 69 507 q 415 831 264 831 q 600 794 499 831 q 765 703 701 758 q 808 664 800 672 q 847 615 826 646 q 881 533 867 583 q 894 439 894 482 m 860 439 q 853 531 860 489 q 824 592 846 572 q 775 628 789 617 q 732 668 750 647 q 588 760 681 725 q 415 794 496 794 q 246 692 325 794 q 142 489 186 614 q 106 343 106 388 q 142 142 106 257 q 271 -87 189 -8 q 406 -128 304 -118 q 561 -132 451 -132 q 739 -74 674 -132 q 831 113 804 -15 q 852 265 844 171 q 860 439 860 360 z "},"P":{"ha":369,"x_min":53,"x_max":318,"o":"m 307 672 q 318 585 318 619 q 269 469 318 503 q 126 436 221 436 q 134 322 126 371 q 163 221 142 274 l 108 213 q 71 454 89 329 q 53 710 53 579 q 53 769 53 753 q 53 807 53 785 l 64 807 l 61 826 q 123 832 92 831 q 183 833 154 833 q 276 788 253 833 q 307 672 285 772 m 268 663 q 233 756 254 721 q 193 794 213 792 q 157 797 174 797 q 92 790 133 797 l 92 715 q 113 565 92 671 q 124 475 124 508 q 235 511 194 475 q 275 611 275 547 q 268 663 275 632 z "},"Q":{"ha":538,"x_min":15,"x_max":508,"o":"m 394 135 l 329 208 l 350 226 q 392 178 378 193 q 421 150 406 164 q 483 294 483 199 q 471 439 483 361 q 443 576 464 482 q 438 630 440 607 q 421 661 435 653 q 340 690 392 682 q 233 699 288 699 q 78 593 125 699 q 43 393 43 515 q 42 299 43 349 q 39 201 40 249 q 44 147 39 154 q 93 121 50 139 q 172 103 136 103 q 215 98 201 99 q 250 97 229 97 q 279 97 264 97 q 315 103 303 101 q 360 114 336 103 q 394 135 369 118 m 485 81 l 463 63 l 417 113 q 370 90 394 100 q 316 75 346 79 q 264 71 286 71 q 210 73 243 71 q 171 75 176 75 q 75 99 124 75 q 17 142 26 122 q 15 165 15 144 q 15 203 15 186 q 15 298 15 250 q 17 393 15 346 q 83 657 17 571 q 233 726 138 726 q 347 717 289 726 q 438 685 404 707 q 459 642 453 674 q 471 583 465 611 q 498 429 488 499 q 508 294 508 360 q 491 199 508 239 q 440 131 474 158 q 485 81 463 106 z "},"R":{"ha":319,"x_min":53,"x_max":260,"o":"m 260 236 q 253 201 260 219 q 238 177 247 183 q 219 168 228 171 q 203 164 211 165 l 249 4 l 215 -4 l 167 164 l 93 164 l 94 126 l 93 79 l 60 79 l 60 269 l 60 425 l 60 479 l 60 561 l 53 647 l 132 658 q 246 581 219 658 q 260 425 260 539 l 260 236 m 226 238 l 226 422 l 226 456 q 214 568 226 533 q 139 622 194 622 q 113 622 125 622 q 86 618 100 622 l 93 564 q 97 551 94 553 q 99 543 99 549 q 99 524 99 533 q 93 485 94 499 q 92 458 92 471 q 93 424 93 439 q 95 331 94 382 q 96 235 96 281 l 93 197 l 132 199 q 156 198 143 199 q 181 197 168 197 q 211 201 207 197 q 226 238 226 215 z "},"S":{"ha":424,"x_min":26,"x_max":365,"o":"m 365 678 q 290 647 351 675 q 227 625 236 624 q 156 585 218 626 q 92 539 93 544 q 135 458 90 524 q 167 413 150 435 q 238 284 194 371 q 281 181 281 197 q 237 58 281 165 q 181 -56 193 -49 q 135 -74 156 -69 q 90 -78 115 -78 q 56 -77 72 -78 q 26 -76 40 -76 l 26 -43 q 60 -43 43 -43 q 93 -44 76 -43 q 137 -41 121 -44 q 167 -26 153 -37 q 214 75 181 -14 q 247 181 247 164 q 206 278 247 199 q 139 394 169 346 q 75 477 97 446 q 53 525 53 508 q 171 639 53 576 q 357 711 263 688 l 365 678 z "},"T":{"ha":542,"x_min":28,"x_max":492,"o":"m 492 744 l 481 714 q 285 774 386 750 l 242 313 q 250 168 242 260 q 260 81 253 136 l 226 72 q 218 163 221 129 q 208 314 208 274 l 251 781 l 207 789 l 28 789 l 28 822 l 210 822 q 354 790 279 811 q 492 744 429 769 z "},"U":{"ha":806,"x_min":50,"x_max":772,"o":"m 772 806 q 742 701 756 771 q 718 575 729 632 q 685 441 707 518 q 644 322 663 364 q 568 179 601 219 q 526 153 546 153 q 508 153 517 153 q 437 122 471 129 q 351 115 403 115 l 292 115 q 225 131 256 115 q 202 139 213 138 q 176 140 192 140 q 154 139 168 140 q 136 138 140 138 q 106 160 113 138 q 92 204 99 183 q 81 246 86 225 q 58 372 65 304 q 50 551 50 439 l 50 592 q 58 694 50 624 q 67 800 67 765 l 100 797 q 99 719 100 750 q 93 590 93 600 l 93 508 q 97 367 93 421 q 114 254 100 313 q 124 214 118 236 q 136 182 129 192 q 177 178 139 178 q 230 176 215 178 q 260 162 244 175 q 292 149 275 149 l 347 149 q 426 154 396 149 q 492 181 456 160 q 558 249 533 207 q 603 347 569 267 q 639 461 618 382 q 665 575 653 517 q 700 704 678 633 q 742 819 722 775 l 772 806 z "},"V":{"ha":265,"x_min":38,"x_max":242,"o":"m 242 638 q 179 460 210 582 q 140 268 154 358 l 107 267 l 100 296 q 38 653 68 474 l 71 653 q 88 507 71 594 q 119 369 99 447 q 155 517 126 432 q 214 654 183 603 l 242 638 z "},"W":{"ha":467,"x_min":46,"x_max":494,"o":"m 494 724 q 458 639 482 685 q 413 550 435 593 q 369 378 385 494 q 355 276 361 322 q 340 196 349 229 q 322 128 338 182 l 301 128 l 286 128 q 219 227 239 185 q 193 328 200 269 q 174 201 174 265 q 174 143 174 167 q 176 100 174 119 l 133 97 l 46 706 l 79 711 l 149 290 q 167 360 156 329 q 185 406 179 390 l 185 415 l 218 418 q 232 277 218 322 q 297 167 246 232 q 329 375 301 188 q 381 569 347 504 q 426 650 381 571 q 464 735 450 690 l 494 724 z "},"X":{"ha":329,"x_min":15,"x_max":303,"o":"m 200 374 q 231 206 224 228 q 285 85 247 149 l 257 68 q 200 206 218 133 q 179 325 189 249 l 175 318 q 110 243 158 290 q 40 176 42 179 l 15 199 q 100 281 71 251 q 145 335 135 315 q 159 363 156 356 q 168 386 163 371 q 136 482 157 439 q 58 586 108 536 l 81 608 q 150 524 126 564 q 186 436 174 483 q 215 510 204 490 q 281 589 236 549 l 303 564 q 232 469 253 519 q 200 374 214 410 z "},"Y":{"ha":507,"x_min":63,"x_max":481,"o":"m 265 601 q 238 658 251 632 q 185 747 218 694 q 128 817 161 783 q 63 875 101 843 l 86 908 q 183 808 136 869 q 261 686 225 754 l 290 626 q 343 699 318 658 q 386 776 371 749 q 417 828 401 803 q 453 879 433 854 l 481 850 q 439 800 457 826 q 383 707 438 797 q 347 649 361 668 q 299 590 329 622 l 303 547 l 306 476 q 306 282 306 357 q 310 131 307 207 l 268 132 q 270 324 268 176 q 272 479 272 471 l 268 544 l 261 600 l 265 601 z "},"Z":{"ha":667,"x_min":44,"x_max":625,"o":"m 625 -232 q 502 -226 569 -229 q 372 -224 435 -224 l 231 -222 q 231 -174 231 -199 q 235 -115 232 -150 q 306 194 250 56 q 336 264 317 222 q 368 333 363 322 q 436 463 414 418 q 517 661 479 546 q 439 657 469 658 q 150 644 228 644 l 53 643 l 44 676 l 135 683 q 415 690 240 683 q 571 697 474 692 q 489 499 546 613 q 399 319 443 408 q 367 235 388 296 q 346 181 360 214 q 293 40 304 79 q 269 -119 269 -39 q 267 -157 268 -139 q 267 -192 267 -175 l 433 -187 l 625 -183 l 625 -232 z "},"[":{"ha":267,"x_min":29,"x_max":208,"o":"m 208 -128 l 39 -128 l 39 -83 l 39 568 q 35 599 39 581 q 32 625 32 618 q 30 665 31 647 q 29 694 29 682 q 30 755 29 739 q 32 781 31 771 q 85 781 56 781 q 133 781 114 781 l 189 774 l 186 740 l 131 747 l 65 747 q 65 722 65 739 q 64 675 64 704 q 65 626 64 642 q 69 595 65 613 q 72 571 72 578 q 72 291 72 426 q 72 64 72 156 q 72 -83 72 -28 l 72 -94 l 208 -94 l 208 -128 z "},"\\":{"ha":368,"x_min":40,"x_max":356,"o":"m 356 160 l 325 146 q 229 400 286 239 q 140 654 185 526 q 40 910 90 794 l 71 924 q 169 669 115 819 q 258 415 214 542 q 356 160 310 268 z "},"]":{"ha":267,"x_min":38,"x_max":217,"o":"m 214 778 q 210 747 214 765 q 207 721 207 728 l 207 69 l 207 25 l 38 25 l 38 58 l 174 58 l 174 69 q 174 215 174 124 q 174 442 174 306 q 174 724 174 578 q 177 756 174 738 q 181 779 181 774 q 182 810 182 793 q 182 838 182 828 q 182 873 182 858 q 181 900 182 888 l 115 900 l 60 893 l 57 926 l 113 933 q 174 933 158 933 q 214 933 190 933 q 216 896 215 917 q 217 846 217 875 q 217 811 217 828 q 214 778 214 788 z "},"^":{"ha":368,"x_min":47,"x_max":342,"o":"m 342 901 l 311 890 q 181 1101 269 1010 q 123 1006 154 1069 q 64 882 92 942 l 47 910 q 106 1041 74 976 q 182 1147 139 1106 q 283 1028 247 1082 q 342 901 318 974 z "},"_":{"ha":653,"x_min":33,"x_max":618,"o":"m 618 -93 l 465 -87 l 269 -83 l 33 -72 l 36 -39 l 271 -50 l 465 -54 l 618 -60 l 618 -93 z "},"`":{"ha":174,"x_min":19,"x_max":140,"o":"m 140 889 l 110 875 l 19 1113 l 97 1132 q 118 1012 106 1113 q 140 889 131 911 z "},"a":{"ha":421,"x_min":68,"x_max":369,"o":"m 369 -19 l 339 -31 q 331 8 333 -4 q 328 32 329 21 q 289 5 314 11 q 225 -1 264 -1 q 111 57 160 -1 q 82 145 83 90 q 78 223 81 200 q 74 260 75 246 q 74 296 74 274 q 74 328 74 319 q 83 372 75 338 q 110 429 90 407 q 171 483 143 458 q 217 511 189 500 q 253 524 224 514 l 232 588 q 193 641 218 614 q 156 671 168 668 q 120 671 140 674 q 79 664 100 668 l 68 694 q 89 700 81 699 q 135 706 114 706 q 165 702 147 706 q 204 681 182 699 q 263 604 233 657 q 332 424 308 521 q 356 214 356 326 q 356 134 356 156 q 356 82 356 113 q 369 -19 363 31 m 324 65 l 322 78 q 319 140 319 97 q 318 175 318 157 l 318 210 q 307 363 318 306 q 265 497 296 421 q 218 476 240 488 q 179 451 185 460 q 136 392 150 414 q 118 353 118 364 q 114 219 114 311 l 114 194 q 119 138 114 163 q 142 90 125 113 q 184 43 169 54 q 226 32 199 32 q 278 36 260 32 q 324 65 311 44 z "},"b":{"ha":382,"x_min":56,"x_max":350,"o":"m 135 133 l 139 103 l 106 97 q 85 248 92 185 q 78 388 78 311 l 78 599 q 64 817 78 688 q 56 876 63 840 l 100 875 q 108 742 104 815 q 111 601 111 669 l 111 540 q 139 542 121 542 l 169 542 q 297 474 243 542 q 350 317 350 407 q 289 174 350 219 q 135 133 235 133 m 111 507 l 111 392 q 117 280 111 339 q 131 167 124 221 q 262 204 204 167 q 319 294 319 242 q 317 317 319 310 q 264 460 290 421 q 186 510 231 510 q 169 508 175 510 q 158 507 164 507 q 150 507 153 507 l 126 507 l 111 507 z "},"c":{"ha":476,"x_min":71,"x_max":454,"o":"m 454 163 q 381 133 417 147 q 296 122 346 122 q 121 160 165 122 q 71 328 71 201 q 78 453 71 417 q 146 572 93 535 q 197 597 169 589 q 251 604 225 604 q 306 602 272 604 q 342 600 339 600 l 388 600 l 388 567 l 344 567 q 306 567 325 567 q 269 568 288 567 q 212 563 236 568 q 168 544 188 558 q 115 474 132 519 q 99 382 99 429 q 99 358 99 367 q 104 328 100 349 q 144 219 115 261 q 269 154 190 154 q 296 156 288 154 q 385 171 358 163 q 443 193 414 183 l 454 163 z "},"d":{"ha":568,"x_min":25,"x_max":481,"o":"m 428 596 l 411 783 l 381 1065 l 414 1068 l 436 911 q 457 731 442 869 q 481 407 481 519 l 481 239 l 447 239 l 447 272 q 367 243 369 244 q 282 226 314 226 q 264 228 269 226 q 94 282 146 247 q 25 428 25 329 q 99 573 25 518 q 269 628 172 628 q 351 620 308 628 q 428 596 394 613 m 432 554 q 365 584 410 572 q 285 596 319 596 q 269 594 272 596 q 122 521 144 542 q 75 431 85 488 q 71 396 71 411 q 153 304 71 336 q 268 259 261 263 q 293 256 275 256 q 367 273 325 256 q 447 307 410 290 l 447 404 q 440 500 447 443 q 432 554 439 519 z "},"e":{"ha":693,"x_min":54,"x_max":647,"o":"m 508 518 q 486 561 490 554 q 451 601 471 586 q 332 665 407 636 q 249 689 271 689 q 131 610 181 689 q 82 433 82 532 q 86 380 82 399 q 90 345 90 361 q 90 315 90 329 q 308 419 199 367 q 431 488 372 460 q 508 518 479 510 m 531 496 l 522 493 q 456 464 490 486 q 385 408 419 436 q 96 282 240 344 q 125 210 103 247 q 168 140 147 174 q 249 92 176 124 q 368 60 321 60 q 382 61 378 61 q 504 74 443 67 q 601 156 596 93 l 647 143 q 543 40 610 61 q 382 28 504 28 q 242 58 307 28 q 132 138 178 88 q 58 299 74 200 q 54 354 54 326 l 54 372 q 81 608 54 538 q 249 722 124 722 q 437 661 353 722 q 554 506 521 600 l 531 496 z "},"f":{"ha":306,"x_min":26,"x_max":269,"o":"m 117 489 q 137 371 125 447 q 156 236 149 294 l 122 231 q 100 347 111 251 q 82 492 85 475 l 26 494 l 29 528 l 75 525 q 61 661 68 593 q 57 700 57 682 q 172 803 57 803 q 240 794 225 803 q 269 744 254 786 l 229 728 q 218 757 229 743 q 186 771 207 771 q 167 767 178 771 q 113 731 132 756 q 94 661 94 707 q 110 522 94 596 l 118 522 q 147 524 133 522 q 175 526 161 525 q 189 525 183 525 l 182 483 l 117 489 z "},"g":{"ha":433,"x_min":28,"x_max":397,"o":"m 361 29 q 286 17 328 17 q 111 65 183 17 q 28 217 28 121 q 92 371 28 308 q 247 433 156 433 q 285 432 274 433 q 339 422 297 431 l 324 472 l 354 483 q 388 344 379 424 q 397 168 397 264 q 396 69 397 135 q 394 -25 394 4 q 367 -131 394 -100 q 269 -161 340 -161 q 177 -145 213 -161 q 118 -86 142 -129 l 149 -69 q 246 -131 179 -131 q 269 -128 253 -131 q 324 -111 308 -121 q 361 -25 361 -86 l 361 29 m 363 67 l 363 147 l 363 178 q 360 299 363 261 q 347 386 358 336 q 301 397 321 393 q 264 401 282 401 q 247 400 253 401 q 140 343 203 393 q 61 207 61 279 q 122 100 61 154 q 253 46 183 46 q 280 49 269 46 q 319 56 290 51 q 363 67 347 60 z "},"h":{"ha":290,"x_min":28,"x_max":263,"o":"m 89 421 q 86 383 86 397 q 76 286 79 300 q 69 217 72 272 q 61 110 65 163 l 28 113 l 71 613 l 94 857 l 128 854 l 114 693 l 94 476 q 113 488 104 486 q 133 490 121 489 q 150 490 144 490 q 205 473 186 490 q 240 439 224 456 q 257 398 251 431 q 263 324 263 365 q 260 244 263 281 q 256 190 258 208 q 251 153 253 171 q 250 113 250 136 l 217 121 q 219 159 217 132 q 222 192 222 186 q 224 268 222 232 q 226 339 225 304 q 217 413 226 390 q 174 450 207 435 q 124 457 140 465 q 94 432 106 447 l 89 421 z "},"i":{"ha":158,"x_min":29,"x_max":115,"o":"m 74 972 l 69 958 q 44 947 60 943 q 35 956 38 949 q 29 972 32 963 l 51 994 l 74 972 m 115 254 q 114 146 115 213 q 113 44 113 79 l 79 44 q 81 144 79 79 q 82 251 82 210 q 63 496 82 322 q 53 650 53 582 l 46 826 l 79 829 q 90 729 88 767 q 103 544 103 606 q 106 433 103 478 q 115 254 115 276 z "},"j":{"ha":318,"x_min":51,"x_max":289,"o":"m 222 994 l 183 994 l 183 1028 l 222 1028 l 222 994 m 289 350 q 275 242 289 275 q 192 189 253 189 q 89 201 113 189 q 56 243 65 214 q 51 271 51 256 q 52 292 51 285 q 56 306 53 299 l 89 306 q 86 282 86 290 q 93 254 86 265 q 121 227 106 238 q 160 217 136 217 q 192 222 176 217 q 240 273 225 235 q 256 350 256 311 q 247 508 256 422 q 229 664 235 614 q 211 860 219 761 l 244 863 l 254 797 q 281 563 272 664 q 289 350 289 461 z "},"k":{"ha":361,"x_min":28,"x_max":297,"o":"m 88 219 q 94 206 92 210 q 114 185 103 192 q 180 154 149 169 q 231 124 211 139 q 263 95 250 108 q 297 51 275 82 l 267 40 q 240 72 251 64 q 207 101 219 88 q 148 133 189 121 q 89 160 107 144 l 110 1 l 72 3 q 64 74 67 47 q 56 204 56 154 l 56 231 q 42 411 56 299 q 28 511 38 449 l 61 511 l 89 274 q 97 278 92 275 q 124 290 111 285 q 148 301 136 296 q 172 315 160 307 q 221 351 196 333 q 275 376 239 363 l 286 346 q 238 324 247 329 q 192 289 229 318 q 165 276 185 283 q 139 263 146 268 q 99 229 132 257 q 88 219 94 226 z "},"l":{"ha":150,"x_min":42,"x_max":136,"o":"m 128 375 q 131 225 128 304 q 136 79 133 146 l 103 82 q 93 188 96 147 q 83 383 83 308 l 83 572 q 63 743 83 639 q 42 899 42 847 l 75 901 q 90 783 75 853 q 125 568 125 625 q 126 472 125 532 q 128 375 128 413 z "},"m":{"ha":760,"x_min":22,"x_max":700,"o":"m 154 685 q 200 713 169 706 q 272 725 244 719 q 312 720 289 729 q 349 693 335 711 q 363 670 356 683 q 376 640 369 657 l 389 606 q 430 655 408 643 q 500 667 451 667 q 636 608 589 667 q 683 458 683 549 q 692 261 683 386 q 700 150 694 219 l 661 150 q 656 281 657 235 q 650 458 650 419 q 625 567 650 522 q 500 633 588 633 q 433 589 469 633 q 383 490 396 544 l 350 494 q 353 547 351 514 q 354 586 354 579 q 350 631 354 622 q 334 658 339 650 q 322 674 329 667 q 290 692 308 686 q 260 696 271 697 q 197 678 213 688 q 160 621 174 663 q 139 535 146 567 q 98 382 115 440 q 67 221 81 324 q 56 133 63 189 l 22 133 q 35 219 31 188 q 64 375 49 310 q 101 553 93 507 q 117 733 117 642 l 117 767 l 150 767 l 150 735 l 154 685 z "},"n":{"ha":339,"x_min":78,"x_max":311,"o":"m 111 572 q 211 606 153 606 q 296 492 272 606 q 311 294 311 418 l 311 250 l 278 250 q 281 308 278 260 q 283 389 283 357 q 271 514 283 472 q 211 572 253 572 q 111 526 154 572 l 111 300 l 78 300 l 78 606 l 111 606 l 111 572 z "},"o":{"ha":882,"x_min":26,"x_max":851,"o":"m 844 210 q 831 17 844 58 q 740 -117 817 -25 q 619 -190 707 -157 q 467 -222 531 -222 q 312 -206 392 -222 q 165 -160 232 -189 q 93 -87 121 -140 q 33 119 61 -29 q 26 178 26 156 q 30 215 26 189 q 33 268 33 242 q 35 347 33 333 q 53 449 44 381 q 66 536 61 517 q 86 581 71 556 q 168 658 110 622 q 296 711 226 694 q 378 721 339 721 q 417 719 396 721 q 475 711 439 717 q 622 664 549 700 q 747 592 649 650 q 807 515 781 572 q 844 399 829 465 q 851 332 851 367 q 850 289 851 306 q 844 210 844 222 m 811 213 q 807 315 811 250 q 803 396 803 381 q 771 497 803 444 q 715 564 747 536 q 626 629 668 603 q 489 679 544 679 q 469 678 476 679 q 282 664 375 671 q 180 624 219 650 q 118 560 140 599 q 99 507 104 535 q 94 443 94 479 q 79 344 94 414 q 71 256 71 306 q 68 192 71 214 q 64 153 65 171 q 67 125 64 136 q 120 -33 83 40 q 191 -129 157 -106 q 281 -160 225 -153 q 461 -172 371 -165 q 533 -160 471 -174 q 715 -94 672 -128 q 786 4 768 -53 q 811 213 811 83 z "},"p":{"ha":421,"x_min":29,"x_max":397,"o":"m 67 375 q 134 378 89 375 q 185 381 179 381 q 282 369 249 381 q 349 317 315 357 q 397 169 397 257 q 378 72 397 107 q 296 15 354 29 q 192 0 257 6 q 92 -6 126 -6 l 92 -76 l 93 -144 l 93 -176 q 90 -208 93 -196 l 57 -203 q 60 -170 60 -187 q 60 -144 60 -153 l 58 -78 q 54 14 58 -43 q 50 106 50 71 l 29 415 l 63 418 l 67 375 m 69 342 q 81 261 78 292 q 92 113 92 169 l 92 28 q 123 26 100 28 q 161 25 146 25 q 194 26 185 25 q 231 33 204 28 q 300 72 258 39 q 364 169 354 115 q 367 196 367 189 q 293 308 367 265 q 185 347 243 338 q 160 349 176 349 q 110 345 142 349 q 69 342 79 342 z "},"q":{"ha":426,"x_min":14,"x_max":411,"o":"m 261 678 q 238 688 250 681 q 210 694 225 694 q 190 692 204 694 q 167 689 176 690 q 93 653 126 681 q 44 547 44 611 q 47 513 44 526 q 86 472 50 499 q 154 433 122 446 q 182 422 171 426 q 213 417 193 417 q 238 417 225 417 q 265 423 253 421 q 285 430 278 425 q 300 446 293 435 l 261 678 m 254 714 l 250 731 l 283 736 l 347 365 l 365 250 l 381 288 l 411 274 l 372 179 l 340 186 l 340 207 l 308 404 q 290 392 300 396 q 261 389 281 389 q 110 418 185 389 q 14 514 14 456 q 46 661 14 610 q 167 722 83 722 q 206 720 190 722 q 254 714 222 718 z "},"r":{"ha":367,"x_min":17,"x_max":319,"o":"m 28 515 l 17 603 l 50 608 l 60 544 q 194 583 110 583 q 297 555 275 583 q 319 442 319 526 l 294 433 q 260 522 294 489 q 197 554 226 554 q 64 507 119 554 l 86 350 q 107 233 100 267 q 143 124 119 178 l 92 108 q 76 217 92 156 q 56 306 60 279 l 28 515 z "},"s":{"ha":292,"x_min":14,"x_max":264,"o":"m 264 481 q 167 474 217 478 q 101 464 118 471 q 53 408 43 440 q 103 336 60 386 q 163 260 154 278 q 181 201 171 243 q 190 129 190 160 q 189 111 190 115 q 161 46 175 60 q 92 25 140 25 q 40 38 57 25 q 14 63 24 53 l 36 88 q 58 63 50 71 q 78 56 65 56 q 92 58 81 56 q 152 88 150 75 q 156 111 154 100 q 160 133 160 122 q 151 182 160 157 q 131 231 143 207 q 49 336 78 294 q 19 408 19 378 q 54 472 19 450 q 100 499 83 489 q 143 513 117 508 q 201 518 169 518 q 241 517 229 518 q 264 514 253 517 l 264 481 z "},"t":{"ha":447,"x_min":28,"x_max":411,"o":"m 138 674 l 31 661 l 28 703 q 44 701 36 701 q 61 701 53 701 q 101 703 79 701 q 135 707 122 706 l 128 765 l 117 886 l 161 906 q 161 844 161 888 q 161 769 161 801 l 168 711 q 196 717 181 713 q 257 731 243 729 q 281 732 271 732 q 294 732 290 732 q 360 729 333 732 q 411 722 388 726 l 411 689 q 381 689 399 689 q 336 690 363 689 q 236 686 281 690 l 171 678 q 200 313 185 494 q 232 222 206 258 q 294 186 258 186 q 314 190 300 186 q 341 210 328 193 q 365 244 354 228 l 390 222 q 358 179 374 200 q 296 150 332 150 q 198 180 221 150 q 167 310 175 210 l 138 674 z "},"u":{"ha":572,"x_min":26,"x_max":511,"o":"m 451 378 l 475 607 l 511 594 q 492 485 500 563 q 481 389 483 407 q 478 338 478 371 q 478 281 478 304 q 478 182 478 222 q 479 106 478 142 l 446 106 l 446 207 q 415 147 431 168 q 364 103 394 118 q 324 83 333 88 q 243 74 303 74 q 136 85 200 74 q 51 178 72 96 q 29 304 47 196 q 26 399 26 326 q 27 502 26 451 q 29 594 28 553 l 63 594 q 61 497 63 569 q 60 396 60 424 q 63 308 60 328 q 82 214 76 233 q 138 132 99 150 q 191 115 157 124 q 243 107 225 107 q 283 110 263 108 q 351 135 318 115 q 385 186 360 139 q 451 378 443 296 z "},"v":{"ha":265,"x_min":32,"x_max":263,"o":"m 263 625 q 211 436 250 565 q 136 222 165 282 q 74 417 104 310 q 32 589 39 536 l 68 590 q 100 450 75 546 q 140 311 111 408 q 183 467 150 338 q 221 621 215 596 l 263 625 z "},"w":{"ha":292,"x_min":0,"x_max":261,"o":"m 169 263 q 203 463 185 364 q 235 607 226 589 l 261 608 q 225 393 243 500 q 201 169 201 244 l 169 163 l 157 188 q 147 247 149 238 q 113 338 136 301 q 82 167 97 251 l 50 172 q 33 338 50 240 q 0 525 15 435 l 33 531 q 75 278 54 404 q 85 351 81 328 q 99 396 89 375 q 143 335 128 367 q 169 263 158 303 z "},"x":{"ha":346,"x_min":15,"x_max":328,"o":"m 299 261 q 269 324 281 300 q 236 386 250 364 q 204 429 222 408 q 121 228 163 328 l 83 247 q 149 385 90 268 q 181 461 174 435 q 118 514 140 496 q 15 585 47 572 l 29 615 q 113 564 68 599 q 194 490 158 529 q 221 561 213 538 q 244 638 235 600 l 275 606 q 248 531 263 565 q 218 464 233 497 q 245 431 233 447 q 266 401 257 415 q 296 342 275 386 q 328 278 322 288 l 299 261 z "},"y":{"ha":339,"x_min":18,"x_max":300,"o":"m 157 264 q 131 311 144 289 q 101 357 117 333 q 63 424 82 390 q 18 486 35 469 l 40 508 q 81 463 64 485 q 115 411 93 447 q 149 353 132 385 q 179 294 156 339 q 207 346 194 318 q 226 398 215 365 q 249 463 238 431 q 269 515 260 496 l 300 501 q 268 415 289 481 q 238 322 242 333 q 214 279 228 292 q 192 256 207 272 l 194 188 l 207 -42 l 174 -42 l 161 181 l 157 253 l 157 264 z "},"z":{"ha":331,"x_min":33,"x_max":307,"o":"m 307 178 l 304 144 q 180 152 225 144 q 90 175 135 160 q 132 268 111 225 q 175 353 161 325 q 213 433 199 401 q 240 524 232 479 l 193 525 q 90 519 154 525 q 33 514 69 518 l 33 547 l 194 558 q 227 558 210 558 q 264 560 244 558 l 282 560 q 263 460 272 501 q 238 386 253 419 q 185 290 224 353 q 133 194 147 226 q 219 182 169 186 q 307 178 268 178 z "},"{":{"ha":278,"x_min":61,"x_max":215,"o":"m 215 638 q 133 504 161 615 q 114 389 124 465 q 125 329 111 375 q 133 281 133 301 q 116 258 133 268 q 99 244 99 249 q 124 222 99 243 q 142 201 138 211 q 147 179 147 190 q 114 56 147 168 q 97 -33 97 0 q 112 -112 97 -78 q 158 -158 126 -147 l 147 -189 q 85 -131 107 -174 q 63 -37 63 -89 q 76 53 63 3 q 108 175 108 169 q 106 193 108 186 q 83 211 104 200 q 61 247 61 222 q 86 268 61 253 q 99 281 99 276 q 90 331 99 304 q 81 389 81 358 q 104 556 81 489 q 201 668 135 640 l 215 638 z "},"|":{"ha":181,"x_min":67,"x_max":104,"o":"m 104 417 q 103 349 104 399 q 101 278 101 299 q 101 239 101 258 q 103 201 101 219 l 103 179 q 101 167 101 171 l 100 111 l 67 111 l 68 168 q 69 191 69 179 q 69 210 69 203 q 69 243 69 226 q 68 278 68 260 q 69 347 68 297 q 71 417 71 397 l 67 917 l 100 917 l 104 417 z "},"}":{"ha":278,"x_min":85,"x_max":239,"o":"m 239 400 q 217 363 239 374 q 194 345 196 351 q 192 328 192 339 q 222 206 192 315 q 238 115 238 150 q 216 22 238 65 q 153 -36 194 -21 l 142 -6 q 188 40 172 6 q 203 119 203 75 q 188 208 203 157 q 153 333 153 326 q 158 353 153 343 q 189 385 164 364 q 201 397 201 394 q 184 410 201 401 q 167 433 167 419 q 178 492 167 458 q 186 542 189 526 q 168 657 175 629 q 85 790 140 768 l 99 821 q 196 708 165 793 q 219 542 219 642 q 210 478 219 507 q 201 433 201 450 q 226 413 201 428 q 239 400 239 404 z "},"~":{"ha":521,"x_min":38,"x_max":500,"o":"m 500 963 q 465 911 482 936 q 403 893 446 893 q 318 899 356 893 q 243 922 281 906 q 222 944 233 926 q 194 963 210 963 q 128 954 154 963 q 60 906 101 946 l 38 928 q 106 981 74 965 q 194 996 138 996 q 228 981 215 996 q 257 953 247 957 q 324 933 289 939 q 403 926 360 926 q 447 942 433 926 q 472 982 461 965 l 500 963 z "},"…":{"ha":625,"x_min":8,"x_max":558,"o":"m 24 119 q 83 154 46 154 q 119 136 100 156 q 132 121 125 128 q 142 74 142 107 q 138 45 142 56 q 119 29 135 35 q 90 24 115 28 q 67 19 78 19 q 46 26 56 19 q 26 46 36 32 q 13 71 15 60 q 12 94 8 83 q 24 119 15 106 m 232 106 q 292 140 254 140 q 328 122 308 142 q 340 107 333 114 q 350 60 350 93 q 347 31 350 42 q 328 15 343 21 q 299 10 324 14 q 275 6 286 6 q 254 12 264 6 q 234 32 244 18 q 221 57 224 46 q 220 81 217 69 q 232 106 224 92 m 440 113 q 500 147 463 147 q 536 129 517 149 q 549 114 542 121 q 558 67 558 100 q 555 38 558 49 q 536 22 551 28 q 507 17 532 21 q 483 13 494 13 q 463 19 472 13 q 442 39 453 25 q 429 64 432 53 q 428 88 425 76 q 440 113 432 99 z "},"‘":{"ha":181,"x_min":11,"x_max":121,"o":"m 113 715 q 99 681 113 694 q 67 668 86 668 q 11 724 11 668 q 47 835 11 760 q 103 935 75 893 l 121 899 q 87 841 96 863 q 78 806 78 819 q 81 779 81 788 q 97 758 81 767 q 113 715 113 750 z "},"’":{"ha":181,"x_min":46,"x_max":156,"o":"m 54 860 q 67 894 54 881 q 100 907 81 907 q 156 851 156 907 q 119 740 156 815 q 64 640 92 682 l 46 676 q 80 734 71 713 q 89 769 89 756 q 86 796 86 788 q 70 817 86 808 q 54 860 54 825 z "},"“":{"ha":368,"x_min":11,"x_max":315,"o":"m 113 715 q 99 681 113 694 q 67 668 86 668 q 11 724 11 668 q 47 835 11 760 q 103 935 75 893 l 121 899 q 87 841 96 863 q 78 806 78 819 q 81 779 81 788 q 97 758 81 767 q 113 715 113 750 m 307 722 q 294 688 307 701 q 261 675 281 675 q 206 731 206 675 q 242 842 206 767 q 297 942 269 900 l 315 906 q 281 848 290 869 q 272 813 272 826 q 275 786 275 794 q 291 765 275 774 q 307 722 307 757 z "},"”":{"ha":396,"x_min":43,"x_max":326,"o":"m 51 857 q 65 891 51 878 q 97 904 78 904 q 153 849 153 904 q 117 738 153 813 q 61 638 89 679 l 43 674 q 77 731 68 710 q 86 767 86 753 q 83 793 83 785 q 67 814 83 806 q 51 857 51 822 m 225 850 q 238 884 225 871 q 271 897 251 897 q 326 842 326 897 q 290 731 326 806 q 235 631 263 672 l 217 667 q 251 724 242 703 q 260 760 260 746 q 257 786 257 778 q 241 807 257 799 q 225 850 225 815 z "},"–":{"ha":417,"x_min":49,"x_max":385,"o":"m 385 407 q 352 404 367 404 q 326 404 338 404 l 243 404 l 199 404 q 118 402 143 404 q 63 388 93 400 l 49 418 q 113 434 79 431 q 196 438 147 438 l 243 438 l 326 438 l 347 438 q 379 440 354 438 l 385 407 z "},"—":{"ha":639,"x_min":49,"x_max":600,"o":"m 600 393 q 567 390 582 390 q 542 390 553 390 l 458 390 q 329 394 436 390 q 190 397 222 397 q 63 388 88 397 l 49 418 q 107 428 65 425 q 201 431 149 431 q 341 428 275 431 q 458 424 407 425 l 542 424 l 563 424 q 594 426 569 424 l 600 393 z "}}}
